<?xml version="1.0" encoding="UTF-8" standalone="no"?>
<svg xmlns="http://www.w3.org/2000/svg" viewBox="0 0 24 24">
<style>
	g path { stroke: none; }
	g.root { display: none; }
	g.root:target { display: inline; }
	g line { stroke: black; }
	g circle { stroke: black; }
	g polyline { stroke: black; }
</style>
<g class="root" id="back_to_top" data-name="back-to-top">
	<path d="M1.608 18.9L12 8.334L22.392 18.9L24 17.268L11.994 5.1L0 17.268L1.608 18.9Z" />
</g>
<g class="root" id="globe" data-name="globe">
	<path d="M12 21.549a9.36 9.36 0 0 1-5.052-1.464l0.48-2.256a2.671 2.671 0 0 0-0.18-1.644l-0.732-1.584a0.587 0.587 0 0 0-0.456-0.336l-2.652-0.372a0.319 0.319 0 0 1-0.204-0.528l0.456-0.564a0.632 0.632 0 0 1 0.528-0.204l0.996 0.156a0.856 0.856 0 0 0 0.348-0.024l1.344-0.3a0.253 0.253 0 0 0 0.12-0.048l0.888-0.432a0.566 0.566 0 0 0 0.324-0.432l0.36-2.652a0.564 0.564 0 0 0-0.36-0.612l-0.456-0.168a0.6 0.6 0 0 1-0.396-0.528a0.586 0.586 0 0 1 0.528-0.612l0.66-0.048a0.583 0.583 0 0 0 0.528-0.612l-0.048-0.804l-0.084-1.596a0.536 0.536 0 0 0-0.372-0.504l-0.36-0.12a9.394 9.394 0 0 1 3.768-0.756a8.304 8.304 0 0 1 2.124 0.252l0.072 1.416v0.048l-0.18 1.764a0.258 0.258 0 0 0 0.048 0.18l0.204 0.3a0.253 0.253 0 0 0 0.384 0.048l0.528-0.48a0.277 0.277 0 0 1 0.432 0.132l0.024 0.072a0.24 0.24 0 0 0 0.228 0.18l0.6 0.024a0.161 0.161 0 0 0 0.108-0.024l0.504-0.204a0.246 0.246 0 0 1 0.324 0.324l-0.276 0.912a0.232 0.232 0 0 1-0.228 0.18l-0.672 0.024h-0.084l-0.852-0.252a0.454 0.454 0 0 0-0.18 0l-0.408 0.18a0.298 0.298 0 0 1-0.204 0l-0.528-0.252a0.258 0.258 0 0 0-0.228 0.024l-0.684 0.48a0.226 0.226 0 0 0-0.096 0.204l0.096 0.78a0.215 0.215 0 0 1-0.144 0.252l-0.504 0.228a0.26 0.26 0 0 0-0.084 0.408l0.36 0.324a0.346 0.346 0 0 0 0.228 0.072l0.648-0.144a0.329 0.329 0 0 1 0.156 0.024l0.3 0.12a5.488 5.488 0 0 1 0.48 0.36a0.272 0.272 0 0 0 0.384-0.048a0.34 0.34 0 0 1 0.18-0.132l0.504-0.048a0.208 0.208 0 0 0 0.144-0.072l0.06-0.06a0.24 0.24 0 0 1 0.396 0.108l0.252 0.708c0.024 0.024 0.024 0.048 0.048 0.072l0.288 0.384a0.274 0.274 0 0 1-0.024 0.348l-0.708 0.66a0.26 0.26 0 0 1-0.36 0l-0.684-0.636c-0.024-0.024-0.048-0.024-0.072-0.048l-0.96-0.408c-0.024 0-0.048-0.024-0.072-0.024l-1.272-0.12h-0.096l-1.056 0.3a1.015 1.015 0 0 0-0.708 0.684l-0.252 0.78a0.922 0.922 0 0 0 0.048 0.756l0.396 0.864a1.1 1.1 0 0 0 0.864 0.6l0.96 0.108c0.024 0 0.072 0.024 0.096 0.024l0.54 0.3a0.247 0.247 0 0 1 0.12 0.204l0.072 0.96a2.771 2.771 0 0 0 0.288 0.96l0.456 0.852a0.277 0.277 0 0 0 0.072 0.108l0.756 0.552a0.308 0.308 0 0 0 0.432-0.072l0.252-0.336c0.024-0.048 0.048-0.072 0.072-0.12l0.552-1.392a0.072 0.072 0 0 1 0.036-0.072l0.168-2.004c0-0.024 0.036-0.048 0.036-0.072l0.396-0.828a0.284 0.284 0 0 1 0.252-0.156l1.368 0.18a0.36 0.36 0 0 0 0.228-0.084l0.252-0.276a0.272 0.272 0 0 0 0.024-0.324l-0.66-0.864a0.275 0.275 0 0 1 0.156-0.408l0.252-0.048c0.048 0 0.432-0.024 0.552-0.048h0.048l0.612 0.096a0.264 0.264 0 0 1 0.252 0.288l-0.156 1.74a0.157 0.157 0 0 0 0.036 0.12l0.48 1.248a9.574 9.574 0 0 1-8.772 5.784h0Zm0-21.549a12 12 0 1 0 12 12A12 12-5645.373 0 0 12 0Z" />
</g>
<g class="root" id="phone" data-name="phone">
	<path d="M21.594 17.916c-1.164-0.432-2.28-0.912-3.408-1.44-1.068-0.528-2.148-1.056-3.168-1.68l-1.776 3.216a23.269 23.269 0 0 1-7.092-9.924l3.456-0.72a42.32 42.32 0 0 1-0.888-7.368l-4.164 0.144l-2.148 0.048a26.015 26.015 0 0 0 17.088 23.808l0.708-2.064Z" />
</g>
<g class="root" id="search" data-name="search">
	<path d="M23.234 21.861L17.522 15.92c1.468-1.746 2.274-3.942 2.274-6.23c0-5.343-4.347-9.69-9.69-9.69s-9.69 4.347-9.69 9.69s4.347 9.69 9.69 9.69c2.006 0 3.918-0.604 5.552-1.754l5.756 5.986c0.24 0.25 0.564 0.387 0.91 0.387c0.328 0 0.639-0.126 0.876-0.352C23.7 23.164 23.716 22.364 23.234 21.861zM10.104 2.529c3.95 0 7.163 3.213 7.163 7.163s-3.213 7.163-7.163 7.163s-7.163-3.213-7.163-7.163S6.156 2.529 10.104 2.529z" />
</g>
<g class="root" id="new_roof" data-name="New Roof">
	<path class="st0" d="M23.848 15.163l-2.681-2.681V1.404c0-0.286-0.231-0.517-0.517-0.517h-5.611c-0.286 0-0.517 0.231-0.517 0.517v4.434l-0.206-0.206c-0.62-0.619-1.443-0.96-2.32-0.96c-0.876 0-1.7 0.341-2.32 0.961l-0.65 0.65H3.611c-0.137 0-0.269 0.054-0.365 0.152L0.444 9.235c-0.148 0.148-0.192 0.37-0.113 0.563c0.08 0.193 0.269 0.319 0.478 0.319h1.03v3.355l-1.688 1.688C0.053 15.258-0.001 15.389-0.001 15.527v2.924c0 0.209 0.126 0.397 0.319 0.478c0.193 0.08 0.416 0.036 0.563-0.113l0.958-0.958v4.738c0 0.286 0.231 0.517 0.517 0.517h19.287c0.286 0 0.517-0.231 0.517-0.517v-4.736l0.958 0.958c0.099 0.099 0.231 0.152 0.365 0.152c0.067 0 0.133-0.013 0.198-0.039c0.193-0.08 0.319-0.269 0.319-0.478V15.528C23.999 15.39 23.946 15.259 23.848 15.163zM15.557 4.101h0.9c0.286 0 0.517-0.231 0.517-0.517c0-0.286-0.231-0.517-0.517-0.517h-0.9V1.92h4.577v1.147h-0.9c-0.286 0-0.517 0.231-0.517 0.517c0 0.286 0.231 0.517 0.517 0.517h0.9v7.347l-4.577-4.577V4.101zM3.825 7.315h4.172l-1.768 1.768H2.057L3.825 7.315zM2.873 10.117h2.322L2.873 12.439V10.117zM21.126 18.26h-2.354c-0.286 0-0.517 0.231-0.517 0.517c0 0.286 0.231 0.517 0.517 0.517h2.354v2.785H2.873v-2.785h2.354c0.286 0 0.517-0.231 0.517-0.517c0-0.286-0.231-0.517-0.517-0.517h-2.354v-1.435l8.999-8.999c0.046-0.046 0.099-0.053 0.127-0.053c0.028 0 0.082 0.007 0.127 0.053l9.001 9.001V18.26zM22.966 17.204l-10.11-10.11c-0.23-0.23-0.534-0.355-0.858-0.355c-0.324 0-0.628 0.126-0.858 0.355L1.033 17.202v-1.462l9.377-9.377c0.425-0.424 0.989-0.658 1.588-0.658c0.599 0 1.164 0.234 1.588 0.658L22.966 15.742V17.204zM8.202 17.19c0 0.642 0.164 1.277 0.473 1.836c0.091 0.164 0.264 0.266 0.452 0.266h5.745c0.188 0 0.361-0.102 0.452-0.266c0.31-0.559 0.473-1.194 0.473-1.836c0-2.095-1.704-3.798-3.798-3.798S8.202 15.096 8.202 17.19zM9.235 17.19c0-1.348 0.969-2.472 2.247-2.716v3.785H9.45C9.309 17.922 9.235 17.557 9.235 17.19zM14.764 17.19c0 0.367-0.073 0.733-0.215 1.069H12.516v-3.785C13.794 14.717 14.764 15.843 14.764 17.19z" />
</g>
<g class="root" id="re_roof" data-name="Re-Roof">
	<path class="st0" d="M23.713 9.828l-2.912-1.29l2.912-1.29c0.175-0.077 0.287-0.25 0.287-0.44c0-0.191-0.112-0.363-0.287-0.44l-11.518-5.1c-0.124-0.055-0.266-0.055-0.39 0L0.287 6.368C0.112 6.446 0 6.618 0 6.809c0 0.191 0.112 0.363 0.287 0.44l2.912 1.29L0.287 9.828C0.112 9.907 0 10.079 0 10.27v3.461c0 0.191 0.112 0.363 0.287 0.44l2.912 1.29L0.287 16.75C0.112 16.828 0 17.001 0 17.191c0 0.191 0.112 0.363 0.287 0.44l11.518 5.1c0.062 0.028 0.129 0.042 0.195 0.042c0.066 0 0.133-0.014 0.195-0.042l11.518-5.1c0.175-0.077 0.287-0.25 0.287-0.44c0-0.191-0.112-0.363-0.287-0.44l-2.912-1.29l2.912-1.29c0.175-0.077 0.287-0.25 0.287-0.44V10.27C24 10.079 23.887 9.907 23.713 9.828zM12 2.236l10.327 4.573L12 11.382L1.672 6.809L12 2.236zM4.39 9.067l7.414 3.283c0.062 0.028 0.129 0.042 0.195 0.042c0.066 0 0.133-0.014 0.195-0.042l7.414-3.283l2.717 1.203L12 14.843L1.672 10.27L4.39 9.067zM4.803 15.117v-2.406l2.875 1.273v2.406L4.803 15.117zM8.643 14.411l2.875 1.273v2.406L8.643 16.816V14.411zM12.482 15.684l2.875-1.273v2.406l-2.875 1.273V15.684zM16.321 13.983l2.875-1.273v2.406l-2.875 1.273V13.983zM0.964 11.01l2.875 1.273v2.406L0.964 13.417V11.01zM12 21.764L1.672 17.191l2.717-1.203l7.414 3.283c0.062 0.028 0.129 0.042 0.195 0.042c0.066 0 0.133-0.014 0.195-0.042l7.414-3.283L22.327 17.191L12 21.764zM20.161 14.69v-2.406L23.036 11.01v2.406L20.161 14.69z" />
</g>
<g class="root" id="roof_repair" data-name="Roof Repair">
	<path class="st0" d="M23.524 23.468c0 0.294-0.238 0.532-0.532 0.532H0.532c-0.294 0-0.532-0.238-0.532-0.532c0-0.294 0.238-0.532 0.532-0.532h22.46C23.286 22.936 23.524 23.175 23.524 23.468zM23.524 9.85c0 0.294-0.238 0.532-0.532 0.532h-8.782v7.846c0 0.109-0.033 0.216-0.096 0.305l-1.916 2.735c-0.099 0.142-0.262 0.227-0.436 0.227c-0.174 0-0.336-0.085-0.436-0.227l-1.916-2.735c-0.063-0.09-0.096-0.196-0.096-0.305V10.382H0.532c-0.294 0-0.532-0.238-0.532-0.532c0-0.294 0.238-0.532 0.532-0.532h8.782V7.102H0.532c-0.294 0-0.532-0.238-0.532-0.532c0-0.294 0.238-0.532 0.532-0.532h5.052v-0.609c0-1.079 0.878-1.958 1.958-1.958h0.253C8.056 1.514 9.735 0 11.762 0c2.027 0 3.706 1.514 3.967 3.472h0.253c1.079 0 1.958 0.878 1.958 1.958v0.609h5.052c0.294 0 0.532 0.238 0.532 0.532c0 0.294-0.238 0.532-0.532 0.532h-8.782v2.216h8.782C23.286 9.318 23.524 9.557 23.524 9.85zM8.87 3.472h5.782c-0.22-1.195-1.164-2.14-2.359-2.359v0.727c0 0.294-0.238 0.532-0.532 0.532c-0.294 0-0.532-0.238-0.532-0.532V1.112C10.035 1.332 9.09 2.277 8.87 3.472zM6.648 6.038h10.227v-0.609c0-0.493-0.401-0.894-0.894-0.894H7.542c-0.493 0-0.894 0.401-0.894 0.894V6.038zM13.146 7.102H10.378v10.958l1.384 1.976l1.384-1.976V7.102zM3.156 12.067h-1.033c-0.294 0-0.532 0.238-0.532 0.532s0.238 0.532 0.532 0.532h1.033c0.294 0 0.532-0.238 0.532-0.532S3.449 12.067 3.156 12.067zM7.03 12.067h-1.033c-0.294 0-0.532 0.238-0.532 0.532s0.238 0.532 0.532 0.532h1.033c0.294 0 0.532-0.238 0.532-0.532S7.323 12.067 7.03 12.067zM4.059 14.098c-0.294 0-0.532 0.238-0.532 0.532c0 0.294 0.238 0.532 0.532 0.532h1.033c0.294 0 0.532-0.238 0.532-0.532c0-0.294-0.238-0.532-0.532-0.532H4.059zM2.123 17.191h1.033c0.294 0 0.532-0.238 0.532-0.532c0-0.294-0.238-0.532-0.532-0.532h-1.033c-0.294 0-0.532 0.238-0.532 0.532C1.591 16.954 1.83 17.191 2.123 17.191zM7.03 16.127h-1.033c-0.294 0-0.532 0.238-0.532 0.532c0 0.294 0.238 0.532 0.532 0.532h1.033c0.294 0 0.532-0.238 0.532-0.532C7.562 16.366 7.323 16.127 7.03 16.127zM5.092 18.158h-1.033c-0.294 0-0.532 0.238-0.532 0.532c0 0.294 0.238 0.532 0.532 0.532h1.033c0.294 0 0.532-0.238 0.532-0.532C5.624 18.396 5.387 18.158 5.092 18.158zM2.123 21.252h1.033c0.294 0 0.532-0.238 0.532-0.532c0-0.294-0.238-0.532-0.532-0.532h-1.033c-0.294 0-0.532 0.238-0.532 0.532C1.591 21.014 1.83 21.252 2.123 21.252zM5.997 21.252h1.033c0.294 0 0.532-0.238 0.532-0.532c0-0.294-0.238-0.532-0.532-0.532h-1.033c-0.294 0-0.532 0.238-0.532 0.532C5.465 21.014 5.702 21.252 5.997 21.252zM17.527 12.067h-1.033c-0.294 0-0.532 0.238-0.532 0.532s0.238 0.532 0.532 0.532h1.033c0.294 0 0.532-0.238 0.532-0.532S17.821 12.067 17.527 12.067zM21.401 12.067h-1.033c-0.294 0-0.532 0.238-0.532 0.532s0.238 0.532 0.532 0.532h1.033c0.294 0 0.532-0.238 0.532-0.532S21.694 12.067 21.401 12.067zM18.431 14.098c-0.294 0-0.532 0.238-0.532 0.532c0 0.294 0.238 0.532 0.532 0.532h1.033c0.294 0 0.532-0.238 0.532-0.532c0-0.294-0.238-0.532-0.532-0.532H18.431zM16.495 17.191h1.033c0.294 0 0.532-0.238 0.532-0.532c0-0.294-0.238-0.532-0.532-0.532h-1.033c-0.294 0-0.532 0.238-0.532 0.532C15.963 16.954 16.201 17.191 16.495 17.191zM21.401 16.127h-1.033c-0.294 0-0.532 0.238-0.532 0.532c0 0.294 0.238 0.532 0.532 0.532h1.033c0.294 0 0.532-0.238 0.532-0.532C21.933 16.366 21.694 16.127 21.401 16.127zM19.464 18.158h-1.033c-0.294 0-0.532 0.238-0.532 0.532c0 0.294 0.238 0.532 0.532 0.532h1.033c0.294 0 0.532-0.238 0.532-0.532C19.996 18.396 19.757 18.158 19.464 18.158zM16.495 21.252h1.033c0.294 0 0.532-0.238 0.532-0.532c0-0.294-0.238-0.532-0.532-0.532h-1.033c-0.294 0-0.532 0.238-0.532 0.532C15.963 21.014 16.201 21.252 16.495 21.252zM20.367 21.252h1.033c0.294 0 0.532-0.238 0.532-0.532c0-0.294-0.238-0.532-0.532-0.532h-1.033c-0.294 0-0.532 0.238-0.532 0.532C19.835 21.014 20.074 21.252 20.367 21.252z" />
</g>
<g class="root" id="technology" data-name="Technology">
	<path class="st0" d="M13.42 12.208c0-0.326 0.265-0.592 0.592-0.592s0.592 0.265 0.592 0.592s-0.266 0.592-0.592 0.592S13.42 12.534 13.42 12.208zM11.493 6.628h1.014c0.285 0 0.517-0.232 0.517-0.517v-1.014c0-0.285-0.232-0.517-0.517-0.517h-1.014c-0.285 0-0.517 0.232-0.517 0.517v1.014C10.975 6.396 11.208 6.628 11.493 6.628zM11.493 10.224h1.014c0.285 0 0.517-0.232 0.517-0.517v-1.014c0-0.285-0.232-0.517-0.517-0.517h-1.014c-0.285 0-0.517 0.232-0.517 0.517v1.014C10.975 9.992 11.208 10.224 11.493 10.224zM15.481 10.224h1.014c0.285 0 0.517-0.232 0.517-0.517v-1.014c0-0.285-0.232-0.517-0.517-0.517h-1.014c-0.285 0-0.517 0.232-0.517 0.517v1.014C14.964 9.992 15.195 10.224 15.481 10.224zM19.274 6.628h1.405c0.178 0 0.322-0.144 0.322-0.322V4.902c0-0.178-0.144-0.322-0.322-0.322h-1.405c-0.178 0-0.322 0.144-0.322 0.322v1.405C18.951 6.484 19.096 6.628 19.274 6.628zM15.481 6.628h1.014c0.285 0 0.517-0.232 0.517-0.517v-1.014c0-0.285-0.232-0.517-0.517-0.517h-1.014c-0.285 0-0.517 0.232-0.517 0.517v1.014C14.964 6.396 15.195 6.628 15.481 6.628zM19.274 10.224h1.405c0.178 0 0.322-0.144 0.322-0.322V8.496c0-0.178-0.144-0.322-0.322-0.322h-1.405c-0.178 0-0.322 0.144-0.322 0.322v1.405C18.951 10.079 19.096 10.224 19.274 10.224zM9.988 12.8c0.326 0 0.592-0.266 0.592-0.592s-0.266-0.592-0.592-0.592c-0.326 0-0.592 0.265-0.592 0.592S9.662 12.8 9.988 12.8zM3.322 10.224h1.405c0.178 0 0.322-0.144 0.322-0.322V8.496c0-0.178-0.144-0.322-0.322-0.322H3.322c-0.178 0-0.322 0.144-0.322 0.322v1.405C3 10.079 3.144 10.224 3.322 10.224zM12 14.943c-0.32 0-0.582 0.26-0.582 0.582s0.26 0.582 0.582 0.582s0.582-0.26 0.582-0.582S12.32 14.943 12 14.943zM21 13.54h-18c-0.282 0-0.509 0.228-0.509 0.509s0.228 0.509 0.509 0.509h18c0.282 0 0.509-0.228 0.509-0.509S21.281 13.54 21 13.54zM24 3.409v13.272c0 0.648-0.528 1.175-1.175 1.175H16.121c-0.001 0.326 0.017 0.782 0.106 1.228c0.109 0.543 0.526 1.037 1.146 1.354c0.299 0.153 0.449 0.464 0.374 0.775c-0.078 0.326-0.386 0.554-0.748 0.554H7.001c-0.361 0-0.669-0.228-0.748-0.554c-0.075-0.31 0.076-0.622 0.374-0.775c0.619-0.317 1.037-0.811 1.146-1.354c0.089-0.446 0.109-0.902 0.106-1.228H1.175C0.528 17.857 0 17.33 0 16.681V3.409C0 2.761 0.528 2.233 1.175 2.233h21.65C23.472 2.233 24 2.761 24 3.409zM15.101 17.857H8.899c0.001 0.378-0.022 0.903-0.127 1.429c-0.11 0.546-0.401 1.051-0.833 1.464h8.123c-0.432-0.413-0.723-0.918-0.833-1.464C15.122 18.761 15.1 18.235 15.101 17.857zM22.981 3.409c0-0.086-0.07-0.156-0.156-0.156H1.175C1.089 3.252 1.019 3.323 1.019 3.409v13.272c0 0.086 0.07 0.156 0.156 0.156h7.194h7.261h7.194c0.086 0 0.156-0.07 0.156-0.156V3.409zM12 11.616c-0.326 0-0.592 0.265-0.592 0.592s0.266 0.592 0.592 0.592c0.326 0 0.592-0.266 0.592-0.592S12.326 11.616 12 11.616zM3.322 6.628h1.405c0.178 0 0.322-0.144 0.322-0.322V4.902c0-0.178-0.144-0.322-0.322-0.322H3.322c-0.178 0-0.322 0.144-0.322 0.322v1.405C3 6.484 3.144 6.628 3.322 6.628zM7.505 6.628h1.014c0.285 0 0.517-0.232 0.517-0.517v-1.014c0-0.285-0.232-0.517-0.517-0.517h-1.014c-0.285 0-0.517 0.232-0.517 0.517v1.014C6.988 6.396 7.219 6.628 7.505 6.628zM7.505 10.224h1.014c0.285 0 0.517-0.232 0.517-0.517v-1.014c0-0.285-0.232-0.517-0.517-0.517h-1.014c-0.285 0-0.517 0.232-0.517 0.517v1.014C6.988 9.992 7.219 10.224 7.505 10.224z" />
</g>
<g class="root" id="service" data-name="Service">
	<path class="st0" d="M23.771 10.018c0.208-0.203 0.282-0.5 0.192-0.776c-0.09-0.276-0.324-0.473-0.612-0.515l-6.69-0.972c-0.428-0.062-0.798-0.331-0.989-0.719l-2.991-6.062v0C12.551 0.713 12.291 0.55 12 0.55c-0.291 0-0.551 0.162-0.679 0.423l-2.991 6.062c-0.192 0.388-0.561 0.657-0.989 0.719L0.649 8.726c-0.287 0.042-0.522 0.239-0.612 0.516s-0.016 0.573 0.192 0.776L5.071 14.737c0.31 0.302 0.451 0.737 0.377 1.164l-1.142 6.663c-0.05 0.286 0.066 0.57 0.301 0.741c0.133 0.097 0.288 0.145 0.444 0.145c0.121 0 0.241-0.029 0.353-0.088l5.984-3.146c0.383-0.202 0.841-0.202 1.224 0l5.984 3.146c0.257 0.135 0.562 0.113 0.798-0.057c0.235-0.171 0.35-0.455 0.301-0.741l-1.142-6.663c-0.073-0.427 0.068-0.862 0.377-1.164L23.771 10.018zM17.552 16.072l1.055 6.151l-5.523-2.904c-0.339-0.178-0.711-0.268-1.084-0.268c-0.372 0-0.745 0.089-1.084 0.268l-5.523 2.904l1.055-6.151c0.13-0.756-0.121-1.526-0.669-2.061L1.31 9.654l6.175-0.897c0.758-0.11 1.414-0.586 1.753-1.274l2.762-5.596l2.762 5.596c0.339 0.687 0.995 1.164 1.753 1.274l6.175 0.897l-4.469 4.356C17.673 14.545 17.423 15.316 17.552 16.072zM18.805 11.993l-1.688 1.753c-0.475 0.493-0.695 1.167-0.605 1.847l0.38 2.84c0.037 0.277-0.158 0.533-0.435 0.57c-0.023 0.003-0.045 0.005-0.068 0.005c-0.25 0-0.468-0.185-0.501-0.439l-0.38-2.84c-0.132-0.988 0.188-1.966 0.879-2.684l1.688-1.753c0.194-0.202 0.515-0.208 0.717-0.014C18.993 11.47 19 11.792 18.805 11.993zM9.772 7.747L12 3.232l-1.021 4.651c-0.329 1.501-1.41 2.653-3.06 2.893l-2.49 0.19c1.363 1.211 3.859 3.044 2.507 6.147l-1.752 4.019l0.851-4.962c0.162-0.949-0.152-1.915-0.841-2.588l-3.605-3.514l4.982-0.724C8.523 9.208 9.345 8.61 9.772 7.747z" />
</g>
<g class="root" id="foreman" data-name="Foreman">
	<path class="st0" d="M13.39 15.719l0.457-0.344c0.224-0.168 0.268-0.487 0.1-0.71c-0.168-0.223-0.486-0.268-0.71-0.1l-1.242 0.934l-1.24-0.934c-0.224-0.168-0.542-0.124-0.71 0.1c-0.168 0.224-0.124 0.542 0.1 0.71l0.457 0.344l-1.324 5.604c-0.042 0.178 0.015 0.365 0.15 0.489l2.224 2.052c0.009 0.009 0.02 0.015 0.03 0.023c0.011 0.009 0.023 0.019 0.035 0.027c0.017 0.011 0.034 0.02 0.052 0.029c0.012 0.006 0.024 0.012 0.036 0.018c0.02 0.008 0.042 0.015 0.063 0.02c0.01 0.002 0.02 0.007 0.03 0.009c0.032 0.007 0.064 0.01 0.097 0.01c0 0 0 0 0 0s0 0 0 0c0.033 0 0.065-0.003 0.097-0.01c0.01-0.002 0.02-0.006 0.03-0.009c0.021-0.006 0.043-0.011 0.063-0.02c0.012-0.005 0.024-0.011 0.036-0.018c0.018-0.009 0.035-0.018 0.052-0.029c0.012-0.008 0.024-0.017 0.035-0.027c0.01-0.008 0.02-0.015 0.03-0.023l2.224-2.052c0.134-0.124 0.192-0.311 0.15-0.489L13.39 15.719zM11.996 22.801l-1.663-1.533l1.154-4.883l0.204 0.154c0.09 0.068 0.197 0.103 0.305 0.103s0.215-0.034 0.305-0.103l0.204-0.154l1.154 4.883L11.996 22.801zM20.921 16.369c-0.18-0.901-0.67-1.72-1.38-2.307c-0.454-0.373-0.917-0.615-1.377-0.72l-3.033-0.881c-0.016-0.005-0.03-0.011-0.044-0.02c-0.038-0.026-0.063-0.066-0.068-0.112l-0.034-0.286c0-0.003-0.001-0.007-0.001-0.01l-0.074-0.635c0.756-0.661 1.334-1.571 1.658-2.606c0.625-0.247 1.062-0.971 1.062-1.836c0-0.756-0.331-1.409-0.84-1.726c-0.023-0.771-0.21-2.627-1.438-3.917C14.525 0.442 13.396 0 11.996 0C10.598 0 9.468 0.441 8.637 1.31C7.396 2.607 7.204 4.478 7.179 5.243c-0.499 0.32-0.815 0.96-0.815 1.711c0 0.863 0.436 1.586 1.059 1.835c0.326 1.035 0.905 1.945 1.66 2.606l-0.108 0.933c-0.006 0.045-0.03 0.086-0.068 0.112c-0.014 0.009-0.028 0.016-0.044 0.02l-3.022 0.878c-0.468 0.106-0.934 0.349-1.388 0.723c-0.712 0.588-1.202 1.407-1.38 2.307L2.261 20.432l5.319 1.102c0.035 0.007 0.069 0.01 0.104 0.01c0.235 0 0.446-0.164 0.496-0.404c0.056-0.274-0.119-0.543-0.393-0.599l-4.332-0.898l0.614-3.076c0.133-0.671 0.5-1.284 1.032-1.724c0.333-0.275 0.662-0.45 0.978-0.519l3.069-0.89c0.117-0.034 0.228-0.086 0.328-0.153c0.112-0.075 0.207-0.168 0.286-0.274l1.9 1.701c0.096 0.086 0.217 0.13 0.338 0.13c0.121 0 0.242-0.043 0.338-0.13l1.9-1.701c0.078 0.105 0.174 0.198 0.285 0.274c0.101 0.069 0.212 0.121 0.329 0.154l3.048 0.884l0.033 0.008c0.304 0.066 0.639 0.246 0.968 0.516c0.531 0.438 0.897 1.051 1.031 1.724l0.614 3.076l-4.899 1.015c-0.274 0.056-0.451 0.326-0.393 0.599c0.05 0.24 0.26 0.404 0.496 0.404c0.034 0 0.069-0.003 0.104-0.01l5.885-1.219L20.921 16.369zM11.996 1.014c1.109 0 1.99 0.333 2.618 0.993c0.313 0.328 0.542 0.711 0.71 1.102c-0.568 0.207-1.177 0.269-1.886 0.192c-0.674-0.074-1.258-0.358-1.878-0.66c-0.178-0.087-0.357-0.174-0.542-0.258c-0.601-0.274-1.153-0.398-1.651-0.37c0 0 0.001-0.001 0.001-0.002C10.002 1.35 10.886 1.014 11.996 1.014zM11.996 13.651l-1.952-1.747l0.109-0.946l-0.225-0.175c-0.763-0.594-1.334-1.495-1.609-2.538l-0.09-0.344l-0.354-0.033c-0.241-0.023-0.498-0.394-0.498-0.913c0-0.504 0.23-0.842 0.446-0.902c0.011-0.003 0.023-0.009 0.034-0.014c0.018-0.007 0.036-0.012 0.054-0.021c0.015-0.007 0.027-0.016 0.041-0.025c0.015-0.009 0.028-0.017 0.042-0.027c0.014-0.01 0.025-0.023 0.037-0.034c0.011-0.011 0.024-0.021 0.034-0.033c0.011-0.012 0.02-0.026 0.029-0.039c0.009-0.014 0.019-0.026 0.027-0.039c0.008-0.014 0.015-0.028 0.02-0.043c0.007-0.015 0.015-0.03 0.02-0.046c0.006-0.016 0.009-0.033 0.012-0.048c0.003-0.016 0.008-0.03 0.01-0.046c0.002-0.019 0.002-0.038 0.003-0.057c0-0.012 0.002-0.024 0.002-0.036c-0.001-0.015-0.035-0.936 0.283-1.943c0.115-0.22 0.339-0.408 0.608-0.506c0.389-0.141 0.899-0.07 1.516 0.212c0.177 0.081 0.349 0.164 0.519 0.248c0.669 0.326 1.362 0.662 2.21 0.756c0.24 0.026 0.47 0.039 0.694 0.039c0.576 0 1.103-0.089 1.608-0.269c0.172 0.795 0.149 1.439 0.148 1.455c0 0 0 0.001 0 0.001c-0.003 0.069 0.007 0.135 0.03 0.197c0.006 0.015 0.014 0.028 0.02 0.043c0.007 0.016 0.014 0.032 0.021 0.045c0.007 0.012 0.017 0.023 0.025 0.034c0.011 0.016 0.021 0.032 0.034 0.045c0.007 0.008 0.016 0.015 0.024 0.021c0.016 0.015 0.03 0.03 0.048 0.044c0.053 0.039 0.114 0.069 0.179 0.086c0 0 0.001 0 0.001 0c0.224 0.056 0.456 0.411 0.456 0.906c0 0.519-0.258 0.89-0.5 0.911l-0.355 0.032l-0.09 0.345c-0.274 1.043-0.844 1.945-1.608 2.537l-0.225 0.176l0.11 0.946L11.996 13.651zM15.469 18.182c-0.052-0.275 0.13-0.54 0.404-0.591l2.813-0.53c0.275-0.053 0.54 0.13 0.591 0.404c0.052 0.275-0.13 0.54-0.404 0.591l-2.813 0.53c-0.032 0.006-0.063 0.009-0.095 0.009C15.728 18.595 15.515 18.425 15.469 18.182z" />
</g>
<g class="root" id="fast" data-name="Fast">
	<path class="st0" d="M12 0C6.161 0 1.411 4.75 1.411 10.589c0 5.839 4.75 10.589 10.589 10.589c5.839 0 10.589-4.75 10.589-10.589C22.589 4.75 17.838 0 12 0zM12 20.164C6.72 20.164 2.425 15.869 2.425 10.589C2.425 5.309 6.72 1.014 12 1.014c5.28 0 9.575 4.295 9.575 9.575C21.575 15.869 17.28 20.164 12 20.164zM11.493 3.115V1.886c0-0.281 0.226-0.507 0.507-0.507s0.507 0.226 0.507 0.507v1.229c0 0.281-0.226 0.507-0.507 0.507S11.493 3.396 11.493 3.115zM4.526 11.096H3.297c-0.281 0-0.507-0.226-0.507-0.507s0.226-0.507 0.507-0.507h1.229c0.281 0 0.507 0.226 0.507 0.507S4.807 11.096 4.526 11.096zM12.507 18.062v1.23c0 0.281-0.226 0.507-0.507 0.507s-0.507-0.226-0.507-0.507v-1.23c0-0.281 0.226-0.507 0.507-0.507S12.507 17.782 12.507 18.062zM21.21 10.589c0 0.281-0.226 0.507-0.507 0.507h-1.229c-0.281 0-0.507-0.226-0.507-0.507s0.226-0.507 0.507-0.507h1.229C20.983 10.082 21.21 10.309 21.21 10.589zM16.724 10.082H13.253c-0.137-0.338-0.408-0.608-0.746-0.746V5.865c0-0.281-0.226-0.507-0.507-0.507s-0.507 0.226-0.507 0.507v3.471c-0.495 0.201-0.845 0.686-0.845 1.253c0 0.746 0.606 1.352 1.352 1.352c0.567 0 1.052-0.35 1.253-0.845h3.471c0.281 0 0.507-0.226 0.507-0.507S17.004 10.082 16.724 10.082zM12 10.927c-0.187 0-0.338-0.152-0.338-0.338s0.152-0.338 0.338-0.338s0.338 0.152 0.338 0.338S12.187 10.927 12 10.927zM18.723 23.175c0.175 0.219 0.14 0.537-0.079 0.713c-0.094 0.074-0.205 0.112-0.317 0.112c-0.149 0-0.296-0.065-0.397-0.19l-1.824-2.279c-0.175-0.219-0.14-0.537 0.079-0.713c0.219-0.175 0.537-0.14 0.713 0.079L18.723 23.175zM7.892 21.529l-1.824 2.279c-0.1 0.125-0.248 0.19-0.397 0.19c-0.112 0-0.223-0.036-0.317-0.112c-0.219-0.175-0.255-0.493-0.079-0.713l1.824-2.279c0.175-0.219 0.493-0.254 0.712-0.079C8.032 20.991 8.068 21.311 7.892 21.529zM15.893 11.434c-0.388 1.795-1.983 3.139-3.893 3.139c-2.2 0-3.985-1.785-3.985-3.985c0-1.911 1.345-3.505 3.139-3.893v1.302c-1.091 0.356-1.88 1.38-1.88 2.59c0 1.505 1.22 2.726 2.726 2.726c1.21 0 2.234-0.789 2.59-1.88H15.893zM13.513 2.776c0-0.32 0.26-0.58 0.58-0.58s0.58 0.26 0.58 0.58c0 0.32-0.26 0.58-0.58 0.58S13.513 3.096 13.513 2.776zM9.404 3.067c-0.078-0.134-0.098-0.291-0.057-0.441c0.041-0.15 0.136-0.275 0.27-0.353c0.278-0.16 0.633-0.064 0.793 0.213c0.16 0.277 0.064 0.633-0.213 0.793c-0.089 0.052-0.188 0.078-0.288 0.078c-0.051 0-0.101-0.007-0.151-0.02C9.607 3.298 9.482 3.201 9.404 3.067zM7.545 3.995c-0.226-0.226-0.226-0.595 0-0.821c0.226-0.226 0.595-0.226 0.821 0c0.109 0.109 0.17 0.256 0.17 0.41c0 0.155-0.061 0.301-0.17 0.411c-0.113 0.113-0.261 0.169-0.41 0.169C7.807 4.164 7.659 4.108 7.545 3.995zM5.72 5.021c-0.041-0.15-0.019-0.306 0.059-0.441c0.16-0.277 0.515-0.372 0.793-0.213c0 0 0 0 0 0c0.277 0.16 0.372 0.516 0.213 0.793c-0.078 0.134-0.203 0.231-0.353 0.27c-0.05 0.014-0.1 0.02-0.151 0.02c-0.1 0-0.199-0.026-0.29-0.078C5.856 5.296 5.76 5.169 5.72 5.021zM4.493 6.836c-0.078-0.134-0.098-0.291-0.059-0.441c0.083-0.31 0.402-0.493 0.711-0.41c0.15 0.041 0.275 0.136 0.353 0.27c0.078 0.134 0.098 0.291 0.057 0.441c-0.041 0.15-0.136 0.275-0.27 0.353c-0.089 0.052-0.189 0.078-0.29 0.078c-0.051 0-0.101-0.007-0.151-0.02C4.695 7.066 4.57 6.97 4.493 6.836zM3.607 8.495c0-0.32 0.26-0.58 0.58-0.58c0.32 0 0.58 0.26 0.58 0.58c0 0.32-0.26 0.58-0.58 0.58C3.867 9.077 3.607 8.815 3.607 8.495zM4.477 13.186c-0.089 0.052-0.188 0.078-0.288 0.078c-0.051 0-0.101-0.007-0.152-0.02c-0.15-0.041-0.275-0.136-0.353-0.27c-0.078-0.134-0.098-0.291-0.059-0.441c0.041-0.15 0.136-0.275 0.27-0.353c0.134-0.078 0.291-0.098 0.441-0.059c0.15 0.041 0.275 0.136 0.353 0.27c0.078 0.134 0.098 0.291 0.057 0.441C4.708 12.983 4.612 13.108 4.477 13.186zM5.406 14.222c0.226 0.226 0.226 0.595 0 0.821c-0.113 0.113-0.261 0.17-0.41 0.17c-0.149 0-0.297-0.056-0.41-0.169c-0.11-0.109-0.17-0.256-0.17-0.411s0.061-0.301 0.17-0.411C4.811 13.996 5.18 13.996 5.406 14.222zM6.842 16.157c0.041 0.15 0.02 0.306-0.057 0.441c-0.078 0.134-0.203 0.231-0.353 0.27c-0.05 0.014-0.1 0.02-0.151 0.02c-0.101 0-0.201-0.027-0.29-0.079c-0.134-0.078-0.23-0.203-0.27-0.353c-0.041-0.15-0.019-0.306 0.059-0.441c0.078-0.134 0.203-0.23 0.353-0.27c0.15-0.041 0.306-0.019 0.441 0.059C6.705 15.882 6.801 16.007 6.842 16.157zM8.517 17.745c-0.07 0.258-0.304 0.43-0.561 0.43c-0.05 0-0.099-0.007-0.149-0.019c-0.31-0.083-0.495-0.402-0.411-0.711s0.401-0.493 0.711-0.411C8.416 17.116 8.599 17.435 8.517 17.745zM10.488 18.401c0 0.32-0.26 0.58-0.58 0.58c-0.32 0-0.58-0.26-0.58-0.58s0.26-0.58 0.58-0.58C10.226 17.821 10.488 18.081 10.488 18.401zM14.597 18.112c0.16 0.276 0.064 0.632-0.212 0.792c-0.09 0.052-0.189 0.079-0.291 0.079c-0.051 0-0.101-0.007-0.151-0.02c-0.15-0.041-0.274-0.136-0.352-0.269c-0.078-0.134-0.099-0.291-0.059-0.442s0.136-0.276 0.272-0.353c0.133-0.077 0.29-0.098 0.439-0.057C14.394 17.881 14.519 17.977 14.597 18.112zM16.455 17.183c0.225 0.225 0.225 0.594-0.001 0.82c-0.109 0.109-0.255 0.17-0.41 0.17c-0.155 0-0.301-0.061-0.411-0.17c-0.225-0.226-0.225-0.595 0-0.82c0.109-0.109 0.255-0.17 0.41-0.17S16.346 17.073 16.455 17.183zM18.28 16.158c0.041 0.15 0.019 0.306-0.059 0.441c-0.078 0.134-0.203 0.23-0.353 0.27c-0.05 0.014-0.101 0.02-0.151 0.02c-0.1 0-0.201-0.026-0.29-0.078c-0.134-0.078-0.23-0.203-0.27-0.353c-0.039-0.15-0.019-0.306 0.059-0.441c0.077-0.134 0.203-0.23 0.353-0.27c0.15-0.039 0.305-0.019 0.439 0.059C18.144 15.883 18.24 16.008 18.28 16.158zM19.566 14.782c-0.07 0.26-0.305 0.432-0.561 0.432c-0.05 0-0.1-0.007-0.151-0.02c-0.309-0.083-0.492-0.402-0.41-0.711c0.083-0.31 0.402-0.495 0.712-0.411C19.463 14.155 19.648 14.474 19.566 14.782zM20.393 12.682c0 0.32-0.26 0.58-0.58 0.58s-0.58-0.26-0.58-0.58s0.26-0.58 0.58-0.58S20.393 12.362 20.393 12.682zM19.523 7.993c0.133-0.078 0.291-0.098 0.441-0.057c0.15 0.041 0.276 0.136 0.353 0.272c0.077 0.133 0.098 0.29 0.057 0.441c-0.041 0.15-0.136 0.275-0.27 0.353c-0.089 0.052-0.189 0.078-0.29 0.078c-0.051 0-0.101-0.007-0.151-0.02c-0.15-0.041-0.275-0.136-0.353-0.272c-0.077-0.133-0.098-0.29-0.057-0.439S19.388 8.071 19.523 7.993zM18.594 6.955c-0.109-0.109-0.17-0.256-0.17-0.41s0.061-0.301 0.17-0.411c0.226-0.226 0.595-0.225 0.82 0c0.109 0.109 0.17 0.256 0.17 0.41s-0.061 0.301-0.17 0.411c-0.113 0.113-0.261 0.169-0.41 0.169C18.856 7.125 18.707 7.069 18.594 6.955zM17.158 5.019c-0.039-0.15-0.019-0.306 0.059-0.441c0.077-0.133 0.202-0.23 0.352-0.27c0.15-0.041 0.306-0.02 0.441 0.057c0.134 0.078 0.231 0.203 0.27 0.353c0.041 0.15 0.019 0.306-0.059 0.441c-0.107 0.186-0.303 0.29-0.504 0.29c-0.098 0-0.198-0.025-0.29-0.078C17.294 5.294 17.198 5.169 17.158 5.019zM15.541 3.875c-0.078-0.134-0.098-0.291-0.057-0.442c0.039-0.149 0.135-0.274 0.269-0.352c0.134-0.078 0.291-0.098 0.441-0.059c0.31 0.083 0.493 0.402 0.41 0.712c0 0 0 0 0 0c-0.07 0.259-0.305 0.429-0.561 0.429c-0.05 0-0.099-0.007-0.15-0.02C15.744 4.105 15.619 4.009 15.541 3.875z" />
</g>
<g class="root" id="finacing" data-name="Finacing">
	<path class="st0" d="M24 12.877c0.002-0.252-0.096-0.49-0.274-0.67c-0.18-0.181-0.421-0.282-0.676-0.282h-0.109c-0.776-1.974-2.633-3.16-3.42-3.59c0.119-0.41 0.378-0.923 0.744-1.462c0.153-0.224 0.159-0.518 0.018-0.749c-0.141-0.232-0.407-0.36-0.676-0.326c-1.282 0.158-2.174 0.452-2.912 0.97c-0.653-0.272-1.812-0.693-2.944-0.823C13.334 4.483 11.985 3.408 10.387 3.408C8.496 3.408 6.951 4.917 6.891 6.794C4.815 7.548 2.774 9.434 2.375 11.651c-0.145 0.137-0.366 0.252-0.589 0.302c-0.234 0.053-0.437 0.031-0.544-0.059c-0.225-0.19-0.315-0.79-0.185-0.944c0.072-0.086 0.203-0.151 0.315-0.159c0.011-0.001 0.037-0.002 0.061 0.003c-0.002 0.059-0.028 0.146-0.056 0.179c-0.189 0.201-0.18 0.519 0.021 0.708c0.201 0.189 0.519 0.18 0.708-0.021c0.211-0.224 0.34-0.587 0.327-0.923c-0.01-0.269-0.114-0.508-0.291-0.669c-0.219-0.2-0.516-0.298-0.836-0.278c-0.386 0.026-0.765 0.216-1.015 0.512c-0.533 0.631-0.281 1.862 0.304 2.357c0.252 0.213 0.588 0.323 0.96 0.323c0.146 0 0.298-0.017 0.453-0.052c0.104-0.023 0.206-0.056 0.305-0.094c0.041 1.059 0.248 1.837 0.658 2.485c0.436 0.69 0.752 1.501 0.942 2.409c0.032 0.158 0.043 0.342 0.055 0.537c0.02 0.34 0.042 0.725 0.185 1.133c0.249 0.712 0.922 1.192 1.674 1.192h0.876c0.44 0 0.843-0.203 1.106-0.555c0.262-0.351 0.34-0.79 0.216-1.209c-0.013-0.043-0.024-0.088-0.036-0.134c1.673 0.409 3.524 0.4 3.544 0.399c0.484-0.004 0.962-0.017 1.419-0.037c0.166-0.007 0.314 0.095 0.366 0.254c0.039 0.119 0.083 0.247 0.131 0.378c0.2 0.541 0.724 0.904 1.301 0.904h1.125c0.445 0 0.852-0.205 1.115-0.562c0.265-0.358 0.342-0.809 0.211-1.237c-0.014-0.047-0.032-0.122-0.053-0.219C23.287 17.333 23.989 14.196 24 12.877zM10.387 4.409c1.377 0 2.498 1.12 2.498 2.498c0 0.153-0.014 0.302-0.041 0.45c-2.049-0.324-3.718 0.032-4.798 0.416c-0.101-0.276-0.156-0.569-0.156-0.866C7.89 5.529 9.01 4.409 10.387 4.409zM16.983 17.588c-0.081-0.6-0.144-1.306-0.118-1.86c0.013-0.276-0.2-0.511-0.476-0.524c-0.273-0.01-0.511 0.2-0.524 0.476c-0.055 1.17 0.237 2.941 0.38 3.408c0.037 0.12 0.016 0.247-0.059 0.347c-0.073 0.099-0.186 0.156-0.311 0.156h-1.125c-0.161 0-0.307-0.1-0.362-0.249c-0.045-0.119-0.085-0.236-0.12-0.344c-0.191-0.581-0.752-0.968-1.361-0.942c-0.446 0.02-0.913 0.032-1.386 0.036c-0.022 0-2.085 0.003-3.684-0.474c-0.039-0.62-0.024-1.279-0.004-1.806c0.011-0.276-0.205-0.51-0.481-0.52c-0.276-0.007-0.509 0.205-0.52 0.481c-0.061 1.57 0.01 2.599 0.23 3.341c0.046 0.153-0.017 0.268-0.058 0.324c-0.072 0.097-0.183 0.153-0.303 0.153h-0.876c-0.327 0-0.62-0.209-0.728-0.521c-0.097-0.276-0.112-0.56-0.13-0.86c-0.013-0.223-0.026-0.453-0.073-0.683c-0.214-1.027-0.575-1.949-1.076-2.741c-0.353-0.559-0.511-1.286-0.511-2.359c0-1.993 1.834-3.837 3.705-4.605c0.031 0.116 0.069 0.23 0.112 0.342c-0.252 0.126-0.399 0.219-0.424 0.236c-0.232 0.15-0.297 0.46-0.147 0.691c0.096 0.148 0.257 0.229 0.421 0.229c0.092 0 0.187-0.026 0.27-0.08c0.028-0.018 2.798-1.757 6.681-0.617c0.265 0.078 0.543-0.075 0.621-0.34c0.078-0.265-0.075-0.544-0.34-0.622c-0.129-0.038-0.256-0.072-0.383-0.105c0.036-0.191 0.057-0.386 0.06-0.583c0.731 0.114 1.475 0.354 2.011 0.555c-0.129 0.157-0.264 0.338-0.382 0.537c-0.141 0.238-0.063 0.545 0.175 0.687c0.08 0.048 0.168 0.07 0.256 0.07c0.171 0 0.337-0.088 0.431-0.245c0.262-0.44 0.65-0.796 0.71-0.849c0.508-0.409 1.122-0.67 1.987-0.835c-0.292 0.512-0.557 1.11-0.612 1.664l-0.036 0.357l0.327 0.149c0.022 0.01 1.977 0.918 2.969 2.633c0 0.004-0.001 0.008-0.001 0.011c-0.011 0.506-0.105 1.46-0.306 1.863c-0.124 0.247-0.023 0.549 0.224 0.672c0.072 0.036 0.148 0.053 0.224 0.053c0.184 0 0.361-0.101 0.449-0.277c0.149-0.297 0.244-0.706 0.305-1.094h0.384C22.966 14.029 22.278 16.507 16.983 17.588zM19.886 10.505c-0.425 0-0.771 0.346-0.771 0.771s0.346 0.771 0.771 0.771s0.771-0.346 0.771-0.771S20.311 10.505 19.886 10.505zM19.964 12.752c0 0.277-0.224 0.501-0.501 0.501c-0.856 0-1.553-0.697-1.553-1.553c0-0.277 0.224-0.501 0.501-0.501s0.501 0.224 0.501 0.501c0 0.304 0.247 0.551 0.551 0.551C19.739 12.251 19.964 12.475 19.964 12.752zM8.661 7.063c-0.02-0.106-0.031-0.215-0.031-0.327c0-0.971 0.787-1.758 1.758-1.758c0.971 0 1.758 0.787 1.758 1.758c0 0.011-0.001 0.021-0.001 0.032c-0.238-0.02-0.47-0.032-0.696-0.036c-0.002-0.583-0.476-1.056-1.06-1.056c-0.586 0-1.061 0.474-1.061 1.061c0 0.059 0.006 0.117 0.014 0.174C9.102 6.955 8.875 7.007 8.661 7.063z" />
</g>
</svg>