<?xml version="1.0" encoding="UTF-8" standalone="no"?>
<svg xmlns="http://www.w3.org/2000/svg" viewBox="0 0 24 24">
<style>
	g path { stroke: none; }
</style>
<g class="root" id="search" data-name="Search" fill="#ffffff" stroke="#ffffff">
	<path d="M21.589 20.159L16.223 14.794C17.268 13.447 17.896 11.76 17.896 9.924C17.896 5.526 14.331 1.962 9.934 1.962C5.536 1.962 1.971 5.526 1.971 9.924C1.971 14.321 5.536 17.886 9.934 17.886C11.77 17.886 13.456 17.258 14.803 16.214L20.169 21.579C20.561 21.971 21.197 21.971 21.589 21.579C21.981 21.187 21.981 20.551 21.589 20.159ZM3.962 9.924C3.962 6.626 6.636 3.952 9.934 3.952C13.232 3.952 15.905 6.626 15.905 9.924C15.905 13.222 13.232 15.896 9.934 15.896C6.636 15.896 3.962 13.222 3.962 9.924Z" />
</g>
</svg>