<?xml version="1.0" encoding="UTF-8" standalone="no"?>
<svg xmlns="http://www.w3.org/2000/svg" viewBox="0 0 36 36">
<style>
	g path { stroke: none; }
</style>
<g class="root" id="share" data-name="Share" fill="#ffffff" stroke="#ffffff">
	<path d="M23.009 6.265L33.828 17.987L23.009 29.733L23.009 24.893L23.009 22.85L20.975 22.885C10.392 23.066 5.572 26.287 2.983 28.017C2.712 28.199 2.468 28.362 2.266 28.487C3.96 22.591 9.498 13.713 21.104 13.16L23.009 13.07L23.009 11.154L23.009 6.265M22.509 3.467C22.308 3.467 22.105 3.509 21.914 3.593C21.364 3.836 21.01 4.387 21.01 4.997L21.01 11.154C8.123 11.769 1.662 21.812 0.036 29.137C-0.09 29.712 0.116 30.309 0.57 30.673C0.84 30.892 1.17 31.004 1.502 31.004C1.726 31.004 1.952 30.953 2.16 30.847C2.443 30.706 2.757 30.526 3.121 30.313C5.208 29.1 9.461 25.092 21.01 24.893L21.01 31.003C21.01 31.612 21.366 32.165 21.915 32.406C22.105 32.491 22.309 32.533 22.509 32.533C22.885 32.533 23.254 32.389 23.538 32.118L35.527 19.101C35.829 18.811 36 18.408 36 17.985C36 17.563 35.829 17.16 35.525 16.872L23.536 3.881C23.253 3.609 22.883 3.467 22.509 3.467L22.509 3.467Z" />
</g>
</svg>